<svg width="524" height="99" viewBox="0 0 524 99" fill="none" xmlns="http://www.w3.org/2000/svg">
<path d="M19 27.5H1L22.5 98.5H32.5184C36.7123 98.5 40.4607 95.8831 41.9059 91.946L54 59L70 98.5H86L109 27.5H100.183C95.8906 27.5 92.077 30.2392 90.7064 34.3068L77.5 73.5L58.5 27.5H49.5L31.5 73.5L19 27.5Z" fill="black" stroke="black"/>
<path d="M135.5 98.5H117V10.5C117 4.97716 121.477 0.5 127 0.5H135.5V36C151.03 17.7614 180.867 27.8061 182.205 51.7233L182.5 57V98.5H175.5C169.977 98.5 165.5 94.0228 165.5 88.5V57C164.213 38.5382 137.113 38.49 135.76 56.9471L135.5 60.5V98.5Z" fill="black" stroke="black"/>
<path d="M476.5 98.5H458V10.5C458 4.97716 462.477 0.5 468 0.5H476.5V36C492.03 17.7614 521.867 27.8061 523.205 51.7233L523.5 57V98.5H516.5C510.977 98.5 506.5 94.0228 506.5 88.5V57C505.213 38.5382 478.113 38.49 476.76 56.9471L476.5 60.5V98.5Z" fill="black" stroke="black"/>
<path d="M363.5 98.5H344.5V10.5C344.5 4.97715 348.977 0.5 354.5 0.5H363.5V98.5Z" fill="black" stroke="black"/>
<path fill-rule="evenodd" clip-rule="evenodd" d="M250.965 78.5451L257 85.9996L247.027 92.534C225.208 106.829 196.014 92.81 193.528 66.8446L193.405 65.5663C191.562 46.3124 206.463 29.5082 225.797 28.9311C243.315 28.4081 258.312 41.5547 260 58.9996V66.4996H209.5C209.051 79.7319 222.986 88.5758 234.768 82.5372L245.013 77.2867C247.045 76.2453 249.529 76.7704 250.965 78.5451ZM243 56.4996H210C212.372 37.2878 240.163 37.351 243 56.4996Z" fill="black"/>
<path d="M257 85.9996L257.274 86.4179L257.737 86.1148L257.389 85.685L257 85.9996ZM250.965 78.5451L251.354 78.2305L250.965 78.5451ZM247.027 92.534L246.753 92.1157L247.027 92.534ZM193.528 66.8446L194.025 66.797H194.025L193.528 66.8446ZM193.405 65.5663L192.908 65.614L193.405 65.5663ZM225.797 28.9311L225.811 29.4309L225.797 28.9311ZM260 58.9996H260.5V58.9755L260.498 58.9515L260 58.9996ZM260 66.4996V66.9996H260.5V66.4996H260ZM209.5 66.4996V65.9996H209.017L209 66.4827L209.5 66.4996ZM234.768 82.5372L234.996 82.9822L234.768 82.5372ZM245.013 77.2867L244.785 76.8417L245.013 77.2867ZM243 56.4996V56.9996H243.58L243.495 56.4264L243 56.4996ZM210 56.4996L209.504 56.4384L209.434 56.9996H210V56.4996ZM257.389 85.685L251.354 78.2305L250.577 78.8597L256.611 86.3142L257.389 85.685ZM247.301 92.9522L257.274 86.4179L256.726 85.5814L246.753 92.1157L247.301 92.9522ZM193.03 66.8923C195.552 93.2322 225.168 107.453 247.301 92.9522L246.753 92.1157C225.249 106.204 196.476 92.3878 194.025 66.797L193.03 66.8923ZM192.908 65.614L193.03 66.8923L194.025 66.797L193.903 65.5187L192.908 65.614ZM225.782 28.4313C206.161 29.017 191.036 46.0706 192.908 65.614L193.903 65.5187C192.087 46.5541 206.765 29.9994 225.811 29.4309L225.782 28.4313ZM260.498 58.9515C258.784 41.2432 243.562 27.9006 225.782 28.4313L225.811 29.4309C243.068 28.9157 257.84 41.8662 259.502 59.0478L260.498 58.9515ZM260.5 66.4996V58.9996H259.5V66.4996H260.5ZM209.5 66.9996H260V65.9996H209.5V66.9996ZM234.54 82.0923C223.097 87.9569 209.564 79.3677 210 66.5166L209 66.4827C208.539 80.0961 222.874 89.1947 234.996 82.9822L234.54 82.0923ZM244.785 76.8417L234.54 82.0923L234.996 82.9822L245.241 77.7317L244.785 76.8417ZM251.354 78.2305C249.768 76.2719 247.027 75.6925 244.785 76.8417L245.241 77.7317C247.063 76.7982 249.289 77.2689 250.577 78.8597L251.354 78.2305ZM243 55.9996H210V56.9996H243V55.9996ZM210.496 56.5609C211.646 47.2459 218.936 42.6068 226.325 42.6145C233.717 42.6221 241.129 47.2814 242.505 56.5729L243.495 56.4264C242.034 46.5692 234.132 41.6226 226.326 41.6145C218.517 41.6064 210.726 46.5416 209.504 56.4384L210.496 56.5609Z" fill="black"/>
<path fill-rule="evenodd" clip-rule="evenodd" d="M326.965 78.5451L333 85.9996L323.027 92.534C301.208 106.829 272.014 92.81 269.528 66.8446L269.405 65.5663C267.562 46.3124 282.463 29.5082 301.797 28.9311C319.315 28.4081 334.312 41.5547 336 58.9996V66.4996H285.5C285.051 79.7319 298.986 88.5758 310.768 82.5372L321.013 77.2867C323.045 76.2453 325.529 76.7704 326.965 78.5451ZM319 56.4996H286C288.372 37.2878 316.163 37.351 319 56.4996Z" fill="black"/>
<path d="M333 85.9996L333.274 86.4179L333.737 86.1148L333.389 85.685L333 85.9996ZM326.965 78.5451L327.354 78.2305L326.965 78.5451ZM323.027 92.534L322.753 92.1157L323.027 92.534ZM269.528 66.8446L270.025 66.797L269.528 66.8446ZM269.405 65.5663L268.908 65.614L269.405 65.5663ZM301.797 28.9311L301.811 29.4309L301.797 28.9311ZM336 58.9996H336.5V58.9755L336.498 58.9515L336 58.9996ZM336 66.4996V66.9996H336.5V66.4996H336ZM285.5 66.4996V65.9996H285.017L285 66.4827L285.5 66.4996ZM310.768 82.5372L310.996 82.9822L310.768 82.5372ZM321.013 77.2867L320.785 76.8417L321.013 77.2867ZM319 56.4996V56.9996H319.58L319.495 56.4264L319 56.4996ZM286 56.4996L285.504 56.4384L285.434 56.9996H286V56.4996ZM333.389 85.685L327.354 78.2305L326.577 78.8597L332.611 86.3142L333.389 85.685ZM323.301 92.9522L333.274 86.4179L332.726 85.5814L322.753 92.1157L323.301 92.9522ZM269.03 66.8923C271.552 93.2322 301.167 107.453 323.301 92.9522L322.753 92.1157C301.249 106.204 272.476 92.3878 270.025 66.797L269.03 66.8923ZM268.908 65.614L269.03 66.8923L270.025 66.797L269.903 65.5187L268.908 65.614ZM301.782 28.4313C282.161 29.017 267.036 46.0706 268.908 65.614L269.903 65.5187C268.087 46.5541 282.765 29.9994 301.811 29.4309L301.782 28.4313ZM336.498 58.9515C334.784 41.2432 319.562 27.9006 301.782 28.4313L301.811 29.4309C319.068 28.9157 333.84 41.8662 335.502 59.0478L336.498 58.9515ZM336.5 66.4996V58.9996H335.5V66.4996H336.5ZM285.5 66.9996H336V65.9996H285.5V66.9996ZM310.54 82.0923C299.097 87.9569 285.564 79.3677 286 66.5166L285 66.4827C284.539 80.0961 298.874 89.1947 310.996 82.9822L310.54 82.0923ZM320.785 76.8417L310.54 82.0923L310.996 82.9822L321.241 77.7317L320.785 76.8417ZM327.354 78.2305C325.768 76.2719 323.027 75.6925 320.785 76.8417L321.241 77.7317C323.063 76.7982 325.289 77.2689 326.577 78.8597L327.354 78.2305ZM319 55.9996H286V56.9996H319V55.9996ZM286.496 56.5609C287.646 47.2459 294.936 42.6068 302.325 42.6145C309.717 42.6221 317.129 47.2814 318.505 56.5729L319.495 56.4264C318.034 46.5692 310.132 41.6226 302.326 41.6145C294.517 41.6064 286.726 46.5416 285.504 56.4384L286.496 56.5609Z" fill="black"/>
<mask id="path-9-inside-1_3447_1960" fill="white">
<path fill-rule="evenodd" clip-rule="evenodd" d="M409.5 98.5C429.658 98.5 446 82.83 446 63.5C446 44.17 429.658 28.5 409.5 28.5C389.342 28.5 373 44.17 373 63.5C373 82.83 389.342 98.5 409.5 98.5ZM410.029 81.5C420.538 81.5 429.057 73.4411 429.057 63.5C429.057 53.5589 420.538 45.5 410.029 45.5C399.519 45.5 391 53.5589 391 63.5C391 73.4411 399.519 81.5 410.029 81.5Z"/>
</mask>
<path fill-rule="evenodd" clip-rule="evenodd" d="M409.5 98.5C429.658 98.5 446 82.83 446 63.5C446 44.17 429.658 28.5 409.5 28.5C389.342 28.5 373 44.17 373 63.5C373 82.83 389.342 98.5 409.5 98.5ZM410.029 81.5C420.538 81.5 429.057 73.4411 429.057 63.5C429.057 53.5589 420.538 45.5 410.029 45.5C399.519 45.5 391 53.5589 391 63.5C391 73.4411 399.519 81.5 410.029 81.5Z" fill="black"/>
<path d="M445 63.5C445 82.2385 429.146 97.5 409.5 97.5V99.5C430.171 99.5 447 83.4214 447 63.5H445ZM409.5 29.5C429.146 29.5 445 44.7615 445 63.5H447C447 43.5786 430.171 27.5 409.5 27.5V29.5ZM374 63.5C374 44.7615 389.854 29.5 409.5 29.5V27.5C388.829 27.5 372 43.5786 372 63.5H374ZM409.5 97.5C389.854 97.5 374 82.2385 374 63.5H372C372 83.4214 388.829 99.5 409.5 99.5V97.5ZM428.057 63.5C428.057 72.8372 420.039 80.5 410.029 80.5V82.5C421.037 82.5 430.057 74.045 430.057 63.5H428.057ZM410.029 46.5C420.039 46.5 428.057 54.1628 428.057 63.5H430.057C430.057 52.955 421.037 44.5 410.029 44.5V46.5ZM392 63.5C392 54.1628 400.019 46.5 410.029 46.5V44.5C399.02 44.5 390 52.955 390 63.5H392ZM410.029 80.5C400.019 80.5 392 72.8372 392 63.5H390C390 74.045 399.02 82.5 410.029 82.5V80.5Z" fill="black" mask="url(#path-9-inside-1_3447_1960)"/>
</svg>
